<?xml version="1.0" encoding="UTF-8" standalone="no"?>
<!DOCTYPE svg PUBLIC "-//W3C//DTD SVG 1.1//EN"
 "http://www.w3.org/Graphics/SVG/1.1/DTD/svg11.dtd">
<!-- Generated by graphviz version 2.47.0 (20210316.0004)
 -->
<!-- Title: dependencies Pages: 1 -->
<svg width="623pt" height="211pt"
 viewBox="0.00 0.00 623.00 211.00" xmlns="http://www.w3.org/2000/svg" xmlns:xlink="http://www.w3.org/1999/xlink">
<g id="graph0" class="graph" transform="scale(1 1) rotate(0) translate(4 207)">
<title>dependencies</title>
<polygon fill="white" stroke="transparent" points="-4,4 -4,-207 619,-207 619,4 -4,4"/>
<text text-anchor="start" x="286.51" y="-42.4" font-family="Times-12" font-weight="bold" font-size="14.00">Legend</text>
<polygon fill="#ffffb3" stroke="transparent" points="73.5,-10 73.5,-30 93.5,-30 93.5,-10 73.5,-10"/>
<text text-anchor="start" x="97.13" y="-15.4" font-family="Times-12" font-size="14.00"> &#160;Declarations</text>
<polygon fill="#8dd3c7" stroke="transparent" points="186.5,-10 186.5,-30 206.5,-30 206.5,-10 186.5,-10"/>
<text text-anchor="start" x="210.23" y="-15.4" font-family="Times-12" font-size="14.00"> &#160;Module</text>
<polygon fill="#80b1d3" stroke="transparent" points="272.5,-10 272.5,-30 292.5,-30 292.5,-10 272.5,-10"/>
<text text-anchor="start" x="296.28" y="-15.4" font-family="Times-12" font-size="14.00"> &#160;Bootstrap</text>
<polygon fill="#fdb462" stroke="transparent" points="369.5,-10 369.5,-30 389.5,-30 389.5,-10 369.5,-10"/>
<text text-anchor="start" x="393.17" y="-15.4" font-family="Times-12" font-size="14.00"> &#160;Providers</text>
<polygon fill="#fb8072" stroke="transparent" points="465.5,-10 465.5,-30 485.5,-30 485.5,-10 465.5,-10"/>
<text text-anchor="start" x="489.23" y="-15.4" font-family="Times-12" font-size="14.00"> &#160;Exports</text>
<g id="clust1" class="cluster">
<title>cluster_UsersDashboardModule</title>
<polygon fill="none" stroke="black" stroke-dasharray="1,5" points="8,-70 8,-195 607,-195 607,-70 8,-70"/>
</g>
<g id="clust4" class="cluster">
<title>cluster_UsersDashboardModule_imports</title>
<polygon fill="none" stroke="black" points="214,-78 214,-130 599,-130 599,-78 214,-78"/>
</g>
<g id="clust2" class="cluster">
<title>cluster_UsersDashboardModule_declarations</title>
<polygon fill="none" stroke="black" points="16,-78 16,-130 206,-130 206,-78 16,-78"/>
</g>
<!-- UsersDashboardComponent -->
<g id="node1" class="node">
<title>UsersDashboardComponent</title>
<polygon fill="#ffffb3" stroke="black" points="197.84,-122 24.16,-122 24.16,-86 197.84,-86 197.84,-122"/>
<text text-anchor="middle" x="111" y="-99.8" font-family="Times,serif" font-size="14.00">UsersDashboardComponent</text>
</g>
<!-- UsersDashboardModule -->
<g id="node2" class="node">
<title>UsersDashboardModule</title>
<polygon fill="#8dd3c7" stroke="black" points="375.06,-187 372.06,-191 351.06,-191 348.06,-187 222.94,-187 222.94,-151 375.06,-151 375.06,-187"/>
<text text-anchor="middle" x="299" y="-164.8" font-family="Times,serif" font-size="14.00">UsersDashboardModule</text>
</g>
<!-- UsersDashboardComponent&#45;&gt;UsersDashboardModule -->
<g id="edge1" class="edge">
<title>UsersDashboardComponent&#45;&gt;UsersDashboardModule</title>
<path fill="none" stroke="black" d="M111,-122.11C111,-141.34 111,-169 111,-169 111,-169 212.8,-169 212.8,-169"/>
<polygon fill="black" stroke="black" points="212.8,-172.5 222.8,-169 212.8,-165.5 212.8,-172.5"/>
</g>
<!-- UsersDashboardRoutingModule -->
<g id="node3" class="node">
<title>UsersDashboardRoutingModule</title>
<polygon fill="#8dd3c7" stroke="black" points="590.68,-122 587.68,-126 566.68,-126 563.68,-122 393.32,-122 393.32,-86 590.68,-86 590.68,-122"/>
<text text-anchor="middle" x="492" y="-99.8" font-family="Times,serif" font-size="14.00">UsersDashboardRoutingModule</text>
</g>
<!-- UsersDashboardRoutingModule&#45;&gt;UsersDashboardModule -->
<g id="edge2" class="edge">
<title>UsersDashboardRoutingModule&#45;&gt;UsersDashboardModule</title>
<path fill="none" stroke="black" d="M492,-122.11C492,-141.34 492,-169 492,-169 492,-169 385.28,-169 385.28,-169"/>
<polygon fill="black" stroke="black" points="385.28,-165.5 375.28,-169 385.28,-172.5 385.28,-165.5"/>
</g>
<!-- UsersHeaderComponent -->
<g id="node4" class="node">
<title>UsersHeaderComponent</title>
<polygon fill="#8dd3c7" stroke="black" points="375.61,-122 372.61,-126 351.61,-126 348.61,-122 222.39,-122 222.39,-86 375.61,-86 375.61,-122"/>
<text text-anchor="middle" x="299" y="-99.8" font-family="Times,serif" font-size="14.00">UsersHeaderComponent</text>
</g>
<!-- UsersHeaderComponent&#45;&gt;UsersDashboardModule -->
<g id="edge3" class="edge">
<title>UsersHeaderComponent&#45;&gt;UsersDashboardModule</title>
<path fill="none" stroke="black" d="M299,-122.11C299,-122.11 299,-140.99 299,-140.99"/>
<polygon fill="black" stroke="black" points="295.5,-140.99 299,-150.99 302.5,-140.99 295.5,-140.99"/>
</g>
</g>
</svg>
