<?xml version="1.0" encoding="UTF-8" standalone="no"?>
<!DOCTYPE svg PUBLIC "-//W3C//DTD SVG 1.1//EN"
 "http://www.w3.org/Graphics/SVG/1.1/DTD/svg11.dtd">
<!-- Generated by graphviz version 2.47.0 (20210316.0004)
 -->
<!-- Title: dependencies Pages: 1 -->
<svg width="636pt" height="211pt"
 viewBox="0.00 0.00 636.00 211.00" xmlns="http://www.w3.org/2000/svg" xmlns:xlink="http://www.w3.org/1999/xlink">
<g id="graph0" class="graph" transform="scale(1 1) rotate(0) translate(4 207)">
<title>dependencies</title>
<polygon fill="white" stroke="transparent" points="-4,4 -4,-207 632,-207 632,4 -4,4"/>
<text text-anchor="start" x="293.01" y="-42.4" font-family="Times-12" font-weight="bold" font-size="14.00">Legend</text>
<polygon fill="#ffffb3" stroke="transparent" points="80,-10 80,-30 100,-30 100,-10 80,-10"/>
<text text-anchor="start" x="103.63" y="-15.4" font-family="Times-12" font-size="14.00"> &#160;Declarations</text>
<polygon fill="#8dd3c7" stroke="transparent" points="193,-10 193,-30 213,-30 213,-10 193,-10"/>
<text text-anchor="start" x="216.73" y="-15.4" font-family="Times-12" font-size="14.00"> &#160;Module</text>
<polygon fill="#80b1d3" stroke="transparent" points="279,-10 279,-30 299,-30 299,-10 279,-10"/>
<text text-anchor="start" x="302.78" y="-15.4" font-family="Times-12" font-size="14.00"> &#160;Bootstrap</text>
<polygon fill="#fdb462" stroke="transparent" points="376,-10 376,-30 396,-30 396,-10 376,-10"/>
<text text-anchor="start" x="399.67" y="-15.4" font-family="Times-12" font-size="14.00"> &#160;Providers</text>
<polygon fill="#fb8072" stroke="transparent" points="472,-10 472,-30 492,-30 492,-10 472,-10"/>
<text text-anchor="start" x="495.73" y="-15.4" font-family="Times-12" font-size="14.00"> &#160;Exports</text>
<g id="clust1" class="cluster">
<title>cluster_AdminDashboardModule</title>
<polygon fill="none" stroke="black" stroke-dasharray="1,5" points="8,-70 8,-195 620,-195 620,-70 8,-70"/>
</g>
<g id="clust2" class="cluster">
<title>cluster_AdminDashboardModule_declarations</title>
<polygon fill="none" stroke="black" points="416,-78 416,-130 612,-130 612,-78 416,-78"/>
</g>
<g id="clust4" class="cluster">
<title>cluster_AdminDashboardModule_imports</title>
<polygon fill="none" stroke="black" points="16,-78 16,-130 408,-130 408,-78 16,-78"/>
</g>
<!-- AdminDashboardComponent -->
<g id="node1" class="node">
<title>AdminDashboardComponent</title>
<polygon fill="#ffffb3" stroke="black" points="604.36,-122 423.64,-122 423.64,-86 604.36,-86 604.36,-122"/>
<text text-anchor="middle" x="514" y="-99.8" font-family="Times,serif" font-size="14.00">AdminDashboardComponent</text>
</g>
<!-- AdminDashboardModule -->
<g id="node2" class="node">
<title>AdminDashboardModule</title>
<polygon fill="#8dd3c7" stroke="black" points="377.58,-187 374.58,-191 353.58,-191 350.58,-187 218.42,-187 218.42,-151 377.58,-151 377.58,-187"/>
<text text-anchor="middle" x="298" y="-164.8" font-family="Times,serif" font-size="14.00">AdminDashboardModule</text>
</g>
<!-- AdminDashboardComponent&#45;&gt;AdminDashboardModule -->
<g id="edge1" class="edge">
<title>AdminDashboardComponent&#45;&gt;AdminDashboardModule</title>
<path fill="none" stroke="black" d="M514,-122.11C514,-141.34 514,-169 514,-169 514,-169 387.82,-169 387.82,-169"/>
<polygon fill="black" stroke="black" points="387.82,-165.5 377.82,-169 387.82,-172.5 387.82,-165.5"/>
</g>
<!-- AdminDashboardRoutingModule -->
<g id="node3" class="node">
<title>AdminDashboardRoutingModule</title>
<polygon fill="#8dd3c7" stroke="black" points="400.2,-122 397.2,-126 376.2,-126 373.2,-122 195.8,-122 195.8,-86 400.2,-86 400.2,-122"/>
<text text-anchor="middle" x="298" y="-99.8" font-family="Times,serif" font-size="14.00">AdminDashboardRoutingModule</text>
</g>
<!-- AdminDashboardRoutingModule&#45;&gt;AdminDashboardModule -->
<g id="edge2" class="edge">
<title>AdminDashboardRoutingModule&#45;&gt;AdminDashboardModule</title>
<path fill="none" stroke="black" d="M298,-122.11C298,-122.11 298,-140.99 298,-140.99"/>
<polygon fill="black" stroke="black" points="294.5,-140.99 298,-150.99 301.5,-140.99 294.5,-140.99"/>
</g>
<!-- UsersHeaderComponent -->
<g id="node4" class="node">
<title>UsersHeaderComponent</title>
<polygon fill="#8dd3c7" stroke="black" points="177.61,-122 174.61,-126 153.61,-126 150.61,-122 24.39,-122 24.39,-86 177.61,-86 177.61,-122"/>
<text text-anchor="middle" x="101" y="-99.8" font-family="Times,serif" font-size="14.00">UsersHeaderComponent</text>
</g>
<!-- UsersHeaderComponent&#45;&gt;AdminDashboardModule -->
<g id="edge3" class="edge">
<title>UsersHeaderComponent&#45;&gt;AdminDashboardModule</title>
<path fill="none" stroke="black" d="M101,-122.11C101,-141.34 101,-169 101,-169 101,-169 208.44,-169 208.44,-169"/>
<polygon fill="black" stroke="black" points="208.44,-172.5 218.44,-169 208.44,-165.5 208.44,-172.5"/>
</g>
</g>
</svg>
